<?xml version="1.0" encoding="utf-8"?>
<!-- Svg Vector Icons : http://www.onlinewebfonts.com/icon -->
<!DOCTYPE svg PUBLIC "-//W3C//DTD SVG 1.1//EN" "http://www.w3.org/Graphics/SVG/1.1/DTD/svg11.dtd">
<svg version="1.1" xmlns="http://www.w3.org/2000/svg" xmlns:xlink="http://www.w3.org/1999/xlink" x="0px" y="0px" viewBox="0 0 256 256" enable-background="new 0 0 256 256" xml:space="preserve">
<metadata> Svg Vector Icons : http://www.onlinewebfonts.com/icon </metadata>
<g><g><g><path fill="#000000" d="M123,21.9c-4,0.8-10,4-13.5,7.4c-3,2.8-4.8,5.7-16.9,27c-7.4,13.1-28.5,49.9-46.8,81.8c-18.3,31.9-33.7,59.1-34.1,60.6c-2.5,7.5-2.2,14.2,1,21.1c3.6,7.6,11.1,13.1,19.7,14.3c5.4,0.8,187,0.7,191.8-0.1c10.2-1.6,18.7-9.5,21.1-19.7c1.7-7.2,0.6-12.9-4-21.2c-2.6-4.7-41-71.9-84.8-148.3c-8-14-10.7-17.3-16-20.2C134.8,21.6,129,20.7,123,21.9z M133.9,36c1,0.5,2.6,1.7,3.4,2.6c0.8,0.8,13,21.6,27,46.1c14,24.5,34.7,60.7,46.1,80.4c11.3,19.7,21,36.8,21.5,38c1.1,2.5,1.3,6.6,0.4,9.8c-0.8,3.1-5.5,7.5-8.7,8.4c-1.9,0.5-23.3,0.7-96.6,0.5l-94.1-0.2l-2.6-1.3c-3.3-1.6-6.1-4.9-7-8.1c-0.8-3-0.4-7.6,0.8-10.1c1-2,63.9-112,82-143.5c11.9-20.6,12.5-21.4,17.9-23.4C127.5,34.2,130.8,34.4,133.9,36z"/><path fill="#000000" d="M97.4,88.6c-5.6,2.2-9.5,7.5-9.9,13.7c-0.4,5.2,0.9,8.7,4.5,12.3c3.3,3.3,6.6,4.7,11.8,4.7c10.8,0,18.2-10.7,14.7-21.1C115.6,89.8,105.7,85.3,97.4,88.6z"/><path fill="#000000" d="M150.9,103.2c-14,1.4-23.4,3.3-27.5,5.5c-3.6,2-7.3,6.1-8.3,9.4c-0.9,3-6.9,38.6-6.9,41.3c0,2.4,1.3,4.1,3.9,5.3l2.1,1l-3.6,2.8c-1.9,1.6-3.6,2.8-3.7,2.8c-0.2,0-1.3-1.4-2.6-3s-2.5-3-2.7-3c-0.2,0-2.4,1.4-4.7,3.2l-4.3,3.2l-3.6-0.2c-3.4-0.2-3.9-0.1-8.4,2.2c-3.3,1.8-5.7,2.6-8.1,2.8c-4.1,0.5-5.7,1.8-8.2,6.3c-2.7,5.1-4.5,6.8-8.9,8.5c-6.5,2.5-8.3,5.2-9.2,13.5l-0.4,3.8h41.2c22.7,0,41.2-0.2,41.2-0.3c0-1.1-2-6.7-2.7-7.9c-0.5-0.8-1.9-3.2-3-5.5c-2.8-5.9-4.2-7.1-10.5-9.3l-1.6-0.6l1.8-1.4c1-0.8,1.8-1.6,1.8-1.9c0-0.3-1.1-1.9-2.5-3.6c-1.3-1.8-2.2-3.3-2-3.5c0.2-0.2,6.7-5.4,14.5-11.7l14.2-11.3l1.5,1.5l1.6,1.5l-6.8,7.4c-3.8,4.1-7.3,8.2-7.8,9.1c-1.4,2.6-1.2,8.7,0.4,11.8c0.7,1.4,1.7,3,2.2,3.6c0.5,0.6,4.4,7.3,8.5,15c8.1,14.8,9,15.9,12.8,15.9c1,0,2.5-0.3,3.3-0.7c1.8-0.9,3.8-4,3.8-5.7c0-0.8-3.3-8-7.4-16c-9.8-19.5-9.8-19.2,0.3-27c3.3-2.6,6.2-4.6,6.5-4.6c0.2,0,0.9,5.1,1.6,11.4c1.1,10.6,1.5,12.4,4.8,23.7c2,6.7,4,12.8,4.5,13.6c1.4,2,4.4,3.8,6.1,3.8c0.9,0,2.2-0.6,3.3-1.6c1.6-1.4,1.8-1.9,2-5.3c0.2-3.4-0.1-4.7-3.4-14.8c-4.1-12.5-4.1-12.7-3-27.3c0.5-6.1,0.5-9.2,0.1-12.3c-1-6.6-1.6-8-5.1-11.8l-3.2-3.6l1.6-1.9c5.9-6.8,8.6-23.5,4.8-29.3c-0.7-1-2.5-2.5-4.2-3.3c-2.7-1.4-3.4-1.5-8.8-1.4C155.4,102.9,151.9,103.1,150.9,103.2z M160.6,116.6c-0.2,0.4-1.1,3.1-2,6c-1,3-2,5.4-2.2,5.4c-0.3,0-2.5-2.1-5-4.8l-4.5-4.8l5.2-1.1C158.1,115.8,160.9,115.6,160.6,116.6z M130.3,143.2c2.7,2.7,4.7,5.1,4.5,5.4c-0.5,0.9-14.1,11.7-14.1,11.3c0-0.3,0.9-5,1.9-10.6c1-5.6,1.9-10.3,1.9-10.6C124.6,137.7,125.7,138.7,130.3,143.2z"/></g></g></g>
</svg>